<?xml version="1.0" encoding="UTF-8"?>
<svg xmlns="http://www.w3.org/2000/svg" width="53" height="53" version="1.1" viewBox="0 0 53 53">
  <!-- Generator: Adobe Illustrator 28.7.3, SVG Export Plug-In . SVG Version: 1.2.0 Build 164)  -->
  <g>
    <g id="Layer_1">
      <path d="M20.897,53c-2.11,0-4.16-.519-5.929-1.501l-.304-.175c-1.546-.918-2.893-2.184-3.901-3.663L1.067,33.138C.247,31.91-.12,30.454.035,29.038c.082-.756.303-1.477.659-2.141.657-1.229,1.684-2.152,3.054-2.745.766-.325,1.522-.478,2.298-.478,1.2,0,2.365.368,3.368,1.067l1.826,1.268V5.89c0-3.248,2.643-5.89,5.891-5.89s5.891,2.643,5.891,5.89v8.4c1.536.304,3.409,1.094,4.645,3.05,2.448.099,4.475,1.221,5.734,3.183.011.018.022.037.035.055,1.62.189,3.88.896,5.507,3.183.772,1.082,1.181,2.471,1.181,4.016v13.19c0,1.951-.513,3.953-1.482,5.791l-.166.304c-.405.721-1.348,2.396-3.271,3.819-.097.073-.197.143-.296.212-1.814,1.249-3.978,1.908-6.264,1.908h-7.746Z" fill="#fff"/>
      <path d="M37.671,24.663c-1.59-2.233-3.98-2.573-5.201-2.588-.11-.247-.237-.484-.382-.71-1.533-2.389-4.035-2.555-5.353-2.451-.09-.215-.194-.422-.312-.62-1.283-2.151-3.604-2.571-4.961-2.62V5.891c0-2.389-1.943-4.332-4.332-4.332s-4.332,1.943-4.332,4.332v23.099l-4.274-2.97c-1.23-.855-2.77-1.025-4.118-.455l-.04.017c-1.038.449-1.811,1.138-2.297,2.048-.261.488-.424,1.018-.485,1.577-.115,1.051.162,2.14.78,3.065l9.687,14.512c.882,1.294,2.06,2.399,3.406,3.198.089.053.178.104.267.154,1.537.854,3.326,1.305,5.173,1.305h7.746c1.97,0,3.828-.564,5.374-1.629.087-.06.173-.121.259-.185,1.657-1.226,2.455-2.646,2.839-3.329.05-.09.099-.179.146-.268.852-1.615,1.302-3.366,1.302-5.064v-13.19c0-1.217-.309-2.293-.892-3.113ZM36.686,40.966c0,1.394-.375,2.843-1.085,4.189-.039.074-.08.149-.122.223-.344.612-.984,1.752-2.319,2.739-.069.051-.138.1-.207.148-1.232.849-2.722,1.298-4.31,1.298h-7.746c-1.529,0-3.003-.37-4.261-1.068-.074-.041-.148-.084-.222-.127-1.112-.66-2.084-1.573-2.808-2.634L3.925,31.23c-.373-.559-.542-1.205-.475-1.819.035-.319.127-.621.274-.896.424-.793,1.149-1.107,1.388-1.21l.024-.01c.741-.313,1.629-.211,2.317.267l5.748,3.994c.287.199.661.223.97.061.31-.162.504-.482.504-.832V5.891c0-1.354,1.101-2.455,2.455-2.455s2.455,1.101,2.455,2.455v19.775c0,.518.42.938.938.938s.938-.42.938-.938v-8.11c.965.047,2.54.343,3.349,1.7.302.506.461,1.126.461,1.792v5.12c0,.518.42.938.938.938s.938-.42.938-.938v-5.12c0-.094-.004-.186-.009-.279.938-.029,2.448.178,3.367,1.611.376.586.575,1.299.575,2.062v2.666c0,.518.42.938.938.938s.938-.42.938-.938v-2.666c0-.156-.007-.311-.019-.464.916.093,2.269.467,3.2,1.775.45.632.544,1.449.544,2.024v13.19Z"/>
    </g>
  </g>
</svg>